<svg xmlns="http://www.w3.org/2000/svg" viewBox="0 0 100 100"><defs><style>.cls-1{fill:#fff;}</style></defs><g id="Calque_2" data-name="Calque 2"><g id="Icons"><g id="Download"><path id="Arrow" class="cls-1" d="M47.23,69.16c.11.08.24.13.36.2a3.93,3.93,0,0,0,.5.26,2.88,2.88,0,0,0,.5.15,3.06,3.06,0,0,0,.43.13,5,5,0,0,0,2,0,3.06,3.06,0,0,0,.43-.13,2.88,2.88,0,0,0,.5-.15,4.74,4.74,0,0,0,.5-.26c.12-.07.25-.12.36-.2a4.24,4.24,0,0,0,.77-.63l20-20a5,5,0,1,0-7.08-7.07L55,52.93V5A5,5,0,0,0,45,5V52.93L33.54,41.47a5,5,0,0,0-7.08,7.07l20,20A4.24,4.24,0,0,0,47.23,69.16Z"/><path class="cls-1" d="M95,100H5A5,5,0,0,1,5,90H95a5,5,0,0,1,0,10Z"/></g></g></g></svg>