<svg xmlns="http://www.w3.org/2000/svg" viewBox="0 0 100 50"><defs><style>.cls-1{fill:#fff;}</style></defs><g id="Calque_2" data-name="Calque 2"><g id="Icons"><path id="Arrow" class="cls-1" d="M99.16,27.77c.08-.11.13-.24.2-.36a3.93,3.93,0,0,0,.26-.5,2.88,2.88,0,0,0,.15-.5A3.06,3.06,0,0,0,99.9,26a5,5,0,0,0,0-2,3.06,3.06,0,0,0-.13-.43,2.88,2.88,0,0,0-.15-.5,4.74,4.74,0,0,0-.26-.5c-.07-.12-.12-.25-.2-.36a4.24,4.24,0,0,0-.63-.77l-20-20a5,5,0,1,0-7.07,7.08L82.93,20H5A5,5,0,0,0,5,30H82.93L71.47,41.46a5,5,0,0,0,7.07,7.08l20-20A4.24,4.24,0,0,0,99.16,27.77Z"/></g></g></svg>